<svg width="200" height="199" viewBox="0 0 200 199" fill="none" xmlns="http://www.w3.org/2000/svg">
<rect x="100" y="99" width="100" height="100" transform="rotate(180 100 99)" fill="#2C6269"/>
<path fill-rule="evenodd" clip-rule="evenodd" d="M100 199C155.228 199 200 154.228 200 99C200 43.7715 155.228 -1 100 -1C44.7715 -1 0 43.7715 0 99C0 154.228 44.7715 199 100 199ZM100 132C118.225 132 133 117.225 133 99C133 80.7746 118.225 66 100 66C81.7746 66 67 80.7746 67 99C67 117.225 81.7746 132 100 132Z" fill="#004047"/>
<path fill-rule="evenodd" clip-rule="evenodd" d="M100 55H0V59H100V55ZM100 63H0V67H100V63ZM0 71H100V75H0V71ZM100 79H0V83H100V79ZM0 87H100V91H0V87ZM100 95H0V99H100V95Z" fill="#F67E7E"/>
</svg>
